<?xml version="1.0" encoding="UTF-8" standalone="no"?>
<!-- Created with Inkscape (http://www.inkscape.org/) -->
<svg
   xmlns:svg="http://www.w3.org/2000/svg"
   xmlns="http://www.w3.org/2000/svg"
   version="1.0"
   width="449"
   height="358"
   id="svg6643">
  <defs
     id="defs6646" />
  <g
     transform="translate(0,5.131363)"
     id="g7175">
    <g
       transform="translate(3.4150641,-4.326284)"
       id="g7171">
      <path
         d="M 191.05437,50.128118 C 213.73807,-44.248458 402.70083,45.035097 316.11354,139.66487 C 447.27567,168.15747 320.85918,327.89149 246.53522,237.98361 C 233.69672,350.74297 22.374534,237.09262 134.97929,166.51531 C -5.3395078,157.14707 109.92406,-32.485989 191.05437,50.128118 z"
         id="path7165"
         style="opacity:1;fill:#e43232;fill-opacity:1;fill-rule:evenodd;stroke:#cc0000;stroke-width:11.51399994;stroke-linecap:butt;stroke-linejoin:round;stroke-miterlimit:4;stroke-dasharray:none;stroke-dashoffset:0;stroke-opacity:1" />
      <path
         d="M -181.96774,146.05584 C -186.42579,150.35119 -190.32407,146.67496 -196.05912,149.00593 C -201.50701,151.2202 -201.65402,156.55614 -207.53369,156.44686 C -213.72328,156.33182 -213.8803,150.97583 -219.58384,148.56879 C -225.0018,146.28227 -228.87884,149.95139 -232.95912,145.71656 C -237.25447,141.25852 -233.57824,137.36023 -235.90922,131.62519 C -238.12348,126.1773 -243.45943,126.03028 -243.35014,120.15061 C -243.2351,113.96102 -237.87911,113.80401 -235.47207,108.10047 C -233.18555,102.68251 -236.85468,98.805464 -232.61985,94.725186 C -228.1618,90.429835 -224.26352,94.106064 -218.52847,91.775087 C -213.08058,89.560824 -212.93356,84.224876 -207.05389,84.334161 C -200.8643,84.449205 -200.70729,89.805194 -195.00375,92.212235 C -189.58579,94.498754 -185.70875,90.829627 -181.62847,95.064456 C -177.33312,99.522504 -181.00935,103.42079 -178.67837,109.15583 C -176.46411,114.60372 -171.12816,114.75074 -171.23744,120.63041 C -171.35249,126.82 -176.70848,126.97701 -179.11552,132.68055 C -181.40204,138.09851 -177.73291,141.97556 -181.96774,146.05584 z"
         transform="matrix(0.9918763,-0.1272061,0.1272061,0.9918763,409.72818,-2.9602117)"
         id="path6654"
         style="opacity:1;fill:#339966;fill-opacity:1;fill-rule:evenodd;stroke:#028000;stroke-width:3.5999999;stroke-linecap:butt;stroke-linejoin:round;stroke-miterlimit:4;stroke-dasharray:none;stroke-dashoffset:0;stroke-opacity:1" />
    </g>
    <path
       d="M 43.15625,297.28125 C 42.499182,297.3484 41.999587,297.90201 42,298.5625 L 42,333.5625 C 42.003211,334.26878 42.57497,334.84054 43.28125,334.84375 L 65.03125,334.84375 C 65.73753,334.84054 66.309289,334.26878 66.3125,333.5625 L 66.3125,329.5625 C 66.309289,328.85622 65.73753,328.28446 65.03125,328.28125 L 49.28125,328.28125 L 49.28125,298.5625 C 49.278039,297.85622 48.70628,297.28446 48,297.28125 L 43.28125,297.28125 C 43.239608,297.27923 43.197892,297.27923 43.15625,297.28125 z M 154.59375,297.28125 C 154.22073,297.31723 153.88191,297.514 153.6658,297.82016 C 153.44969,298.12632 153.37774,298.51147 153.46875,298.875 L 162.21875,333.875 C 162.36451,334.446 162.87944,334.84507 163.46875,334.84375 L 169.4375,334.84375 C 170.02681,334.84507 170.54174,334.446 170.6875,333.875 L 176.875,308.625 L 183.03125,333.875 C 183.17701,334.446 183.69194,334.84507 184.28125,334.84375 L 190.21875,334.84375 C 190.80806,334.84507 191.32299,334.446 191.46875,333.875 L 200.25,298.875 C 200.34418,298.49105 200.25669,298.08511 200.01271,297.77404 C 199.76874,297.46296 199.39534,297.28127 199,297.28125 L 194.21875,297.28125 C 193.62944,297.27993 193.11451,297.679 192.96875,298.25 L 186.875,322.78125 L 180.75,298.25 C 180.60424,297.679 180.08931,297.27993 179.5,297.28125 L 174.1875,297.28125 C 173.59819,297.27993 173.08326,297.679 172.9375,298.25 L 166.84375,322.78125 L 160.75,298.25 C 160.60424,297.679 160.08931,297.27993 159.5,297.28125 L 154.71875,297.28125 C 154.67711,297.27923 154.63539,297.27923 154.59375,297.28125 z M 247.15625,297.28125 C 246.49918,297.3484 245.99959,297.90201 246,298.5625 L 246,333.5625 C 246.00321,334.26878 246.57497,334.84054 247.28125,334.84375 L 252,334.84375 C 252.70628,334.84054 253.27804,334.26878 253.28125,333.5625 L 253.28125,318.125 L 265.875,318.125 C 266.58128,318.12179 267.15304,317.55003 267.15625,316.84375 L 267.15625,312.84375 C 267.15304,312.13747 266.58128,311.56571 265.875,311.5625 L 253.28125,311.5625 L 253.28125,303.8125 L 267.375,303.8125 C 268.08128,303.80929 268.65304,303.23753 268.65625,302.53125 L 268.65625,298.5625 C 268.65304,297.85622 268.08128,297.28446 267.375,297.28125 L 247.28125,297.28125 C 247.23961,297.27923 247.19789,297.27923 247.15625,297.28125 z M 123.3125,298.5625 C 122.65543,298.62965 122.15584,299.18326 122.15625,299.84375 L 122.15625,306.03125 L 120.28125,306.03125 C 119.57497,306.03446 119.00321,306.60622 119,307.3125 L 119,310.65625 C 119.00321,311.36253 119.57497,311.93429 120.28125,311.9375 L 122.15625,311.9375 L 122.15625,324.90625 C 122.15625,328.35502 122.77699,330.95375 124.4375,332.59375 C 126.10475,334.21985 128.75672,334.84375 132.25,334.84375 L 136.65625,334.84375 C 137.36253,334.84054 137.93429,334.26878 137.9375,333.5625 L 137.9375,329.9375 C 137.93429,329.23122 137.36253,328.65946 136.65625,328.65625 L 132.25,328.65625 C 130.59486,328.65625 129.6956,328.26161 129.5625,328.125 C 129.49828,328.05731 129.06249,326.92788 129.0625,324.90625 L 129.0625,311.9375 L 136.65625,311.9375 C 137.36253,311.93429 137.93429,311.36253 137.9375,310.65625 L 137.9375,307.3125 C 137.93429,306.60622 137.36253,306.03446 136.65625,306.03125 L 129.0625,306.03125 L 129.0625,299.84375 C 129.05929,299.13747 128.48753,298.56571 127.78125,298.5625 L 123.4375,298.5625 C 123.39586,298.56048 123.35414,298.56048 123.3125,298.5625 z M 381.125,298.5625 C 380.46793,298.62965 379.96834,299.18326 379.96875,299.84375 L 379.96875,306.03125 L 378.09375,306.03125 C 377.38747,306.03446 376.81571,306.60622 376.8125,307.3125 L 376.8125,310.65625 C 376.81571,311.36253 377.38747,311.93429 378.09375,311.9375 L 379.96875,311.9375 L 379.96875,324.90625 C 379.96875,328.35502 380.58949,330.95375 382.25,332.59375 C 383.91725,334.21985 386.56922,334.84375 390.0625,334.84375 L 394.46875,334.84375 C 395.17503,334.84054 395.74679,334.26878 395.75,333.5625 L 395.75,329.9375 C 395.74679,329.23122 395.17503,328.65946 394.46875,328.65625 L 390.0625,328.65625 C 388.40736,328.65625 387.5081,328.26161 387.375,328.125 C 387.31078,328.05731 386.87499,326.92788 386.875,324.90625 L 386.875,311.9375 L 394.46875,311.9375 C 395.17503,311.93429 395.74679,311.36253 395.75,310.65625 L 395.75,307.3125 C 395.74679,306.60622 395.17503,306.03446 394.46875,306.03125 L 386.875,306.03125 L 386.875,299.84375 C 386.87179,299.13747 386.30003,298.56571 385.59375,298.5625 L 381.25,298.5625 C 381.20836,298.56048 381.16664,298.56048 381.125,298.5625 z M 79.9375,305.375 C 75.720806,305.37503 72.193144,306.80156 69.625,309.59375 C 67.065428,312.37817 65.812497,316.15976 65.8125,320.6875 C 65.812497,325.09535 67.149566,328.77458 69.84375,331.46875 C 72.553686,334.16144 76.250275,335.5 80.6875,335.5 C 82.439544,335.5 84.214873,335.33315 85.9375,334.96875 C 87.644635,334.60762 89.286006,334.09362 90.90625,333.40625 C 91.381445,333.20315 91.689089,332.73553 91.6875,332.21875 L 91.6875,328.125 C 91.680607,327.68004 91.444353,327.2702 91.062754,327.04124 C 90.681156,326.81228 90.208358,326.79669 89.8125,327 C 88.360041,327.77068 86.891086,328.34081 85.4375,328.71875 C 84.0045,329.09509 82.52785,329.28125 80.96875,329.28125 C 78.339094,329.28125 76.486506,328.59111 75.15625,327.3125 C 74.092592,326.26971 73.481656,324.70497 73.15625,322.75 L 91.40625,322.75 C 92.11253,322.74679 92.684289,322.17503 92.6875,321.46875 L 92.6875,319.34375 C 92.687471,315.21101 91.559336,311.75558 89.25,309.21875 C 86.958281,306.66468 83.749662,305.37503 79.9375,305.375 z M 106.84375,305.375 C 103.44174,305.37503 100.64516,306.08109 98.59375,307.65625 C 96.541787,309.23188 95.468747,311.63342 95.46875,314.40625 C 95.468747,316.68832 96.170843,318.69 97.625,320.125 C 97.624874,320.13542 97.624874,320.14583 97.625,320.15625 C 99.085551,321.57838 101.25848,322.44094 104.0625,323.03125 L 105.53125,323.375 C 108.13293,323.93795 109.8131,324.63799 110.1875,324.9375 C 110.19792,324.93763 110.20833,324.93763 110.21875,324.9375 C 110.70916,325.32215 110.90623,325.73911 110.90625,326.625 C 110.90624,327.5305 110.66128,327.99453 109.875,328.5 C 109.08513,328.99648 107.76104,329.34375 105.875,329.34375 C 104.48319,329.34375 103.04858,329.13208 101.59375,328.75 C 100.1438,328.35456 98.676642,327.75876 97.15625,326.96875 C 96.755452,326.76295 96.276218,326.7817 95.892724,327.01818 C 95.50923,327.25467 95.277308,327.67447 95.28125,328.125 L 95.28125,332.59375 C 95.28151,333.14556 95.633486,333.63582 96.15625,333.8125 C 97.894219,334.37574 99.573428,334.81635 101.15625,335.09375 C 102.76467,335.38918 104.29872,335.5 105.78125,335.5 C 109.33498,335.5 112.25682,334.76146 114.46875,333.125 C 116.68722,331.49692 117.90623,329.09099 117.90625,326.3125 C 117.90623,323.91511 117.14738,321.82625 115.5625,320.375 C 113.98752,318.89609 111.61866,317.96294 108.4375,317.28125 L 106.96875,316.9375 C 104.71514,316.43502 103.21396,315.85746 102.8125,315.5625 C 102.34619,315.2104 102.21874,314.91042 102.21875,314.21875 C 102.21874,313.25356 102.49036,312.79365 103.21875,312.34375 C 103.9707,311.88606 105.32836,311.56252 107.34375,311.5625 C 108.65467,311.56252 109.91545,311.71204 111.125,312 C 112.3345,312.288 113.49166,312.73133 114.625,313.3125 C 115.0258,313.5183 115.50503,313.49955 115.88853,313.26307 C 116.27202,313.02658 116.50394,312.60678 116.5,312.15625 L 116.5,308.0625 C 116.49636,307.53811 116.17495,307.06836 115.6875,306.875 C 114.39672,306.36552 113.03581,305.99558 111.5625,305.75 C 110.0922,305.50498 108.51318,305.37503 106.84375,305.375 z M 213.25,305.375 C 209.03331,305.37503 205.50565,306.80156 202.9375,309.59375 C 200.37793,312.37817 199.125,316.15976 199.125,320.6875 C 199.125,325.09535 200.46207,328.77458 203.15625,331.46875 C 205.86619,334.16143 209.56278,335.5 214,335.5 C 215.75205,335.5 217.52737,335.33315 219.25,334.96875 C 220.95714,334.60762 222.59851,334.09362 224.21875,333.40625 C 224.69394,333.20315 225.00159,332.73553 225,332.21875 L 225,328.125 C 224.99311,327.68004 224.75685,327.2702 224.37525,327.04124 C 223.99366,326.81228 223.52086,326.79669 223.125,327 C 221.67255,327.77068 220.20359,328.34081 218.75,328.71875 C 217.31701,329.09509 215.84035,329.28125 214.28125,329.28125 C 211.65159,329.28125 209.799,328.59111 208.46875,327.3125 C 207.40509,326.26971 206.79415,324.70497 206.46875,322.75 L 224.71875,322.75 C 225.42503,322.74679 225.99679,322.17503 226,321.46875 L 226,319.34375 C 225.99997,315.21101 224.87183,311.75558 222.5625,309.21875 C 220.27078,306.66468 217.06216,305.37503 213.25,305.375 z M 283.21875,305.375 C 279.17543,305.37503 275.79172,306.75247 273.40625,309.46875 C 271.0342,312.18965 269.90625,315.91363 269.90625,320.4375 C 269.90625,324.94654 271.03777,328.67205 273.40625,331.40625 C 275.79172,334.12256 279.17542,335.5 283.21875,335.5 C 287.24758,335.5 290.6437,334.12489 293.03125,331.40625 C 295.41558,328.67382 296.56247,324.94965 296.5625,320.4375 C 296.56247,315.91053 295.41914,312.18786 293.03125,309.46875 C 290.6437,306.75015 287.24757,305.37503 283.21875,305.375 z M 315.40625,305.375 C 313.16039,305.37503 311.14431,305.81793 309.46875,306.71875 C 308.86215,307.03836 308.36424,307.49512 307.84375,307.9375 L 307.84375,307.3125 C 307.84054,306.60622 307.26878,306.03446 306.5625,306.03125 L 302.21875,306.03125 C 301.51247,306.03446 300.94071,306.60622 300.9375,307.3125 L 300.9375,333.5625 C 300.94071,334.26878 301.51247,334.84054 302.21875,334.84375 L 306.5625,334.84375 C 307.26878,334.84054 307.84054,334.26878 307.84375,333.5625 L 307.84375,319.71875 C 307.84374,316.93517 308.45474,314.99071 309.5,313.71875 C 310.56658,312.42363 311.97348,311.78127 314.125,311.78125 C 314.71499,311.78127 315.23373,311.85533 315.6875,311.96875 C 315.69792,311.96888 315.70833,311.96888 315.71875,311.96875 C 316.15293,312.06264 316.55586,312.24717 316.9375,312.46875 C 317.33774,312.70316 317.83315,312.70408 318.23427,312.47117 C 318.63539,312.23827 318.88017,311.80755 318.875,311.34375 L 318.875,306.90625 C 318.88178,306.27681 318.43232,305.73481 317.8125,305.625 C 317.32178,305.5374 316.88332,305.50212 316.5,305.46875 C 316.15489,305.42376 315.83848,305.37504 315.40625,305.375 z M 330.1875,305.375 C 326.63971,305.37503 323.58845,306.81217 321.40625,309.53125 C 319.21753,312.25849 318.1875,315.85792 318.1875,320.125 C 318.1875,324.37727 319.21919,327.96236 321.40625,330.6875 C 323.58845,333.40661 326.63971,334.84375 330.1875,334.84375 C 332.29796,334.84375 334.2021,334.41787 335.8125,333.53125 C 336.29759,333.26417 336.69639,332.87953 337.125,332.53125 C 336.92016,334.43455 336.43207,335.96677 335.5625,336.875 C 334.45239,338.04677 332.76157,338.68749 330.15625,338.6875 C 328.99008,338.68749 327.84986,338.51942 326.71875,338.21875 C 325.5798,337.91599 324.4261,337.48261 323.25,336.84375 C 322.85177,336.62525 322.36787,336.63283 321.97668,336.8637 C 321.58549,337.09456 321.34496,337.51452 321.34375,337.96875 L 321.34375,342.15625 C 321.33936,342.69993 321.67707,343.18773 322.1875,343.375 C 323.52946,343.87202 324.88732,344.23673 326.3125,344.46875 C 327.74086,344.71788 329.23495,344.81249 330.8125,344.8125 C 335.13546,344.81249 338.62482,343.63992 340.90625,341.125 C 343.18925,338.62625 344.18747,334.93899 344.1875,330.28125 L 344.1875,307.3125 C 344.18429,306.60622 343.61253,306.03446 342.90625,306.03125 L 338.59375,306.03125 C 337.88747,306.03446 337.31571,306.60622 337.3125,307.3125 L 337.3125,307.8125 C 336.83423,307.40467 336.36372,306.99099 335.8125,306.6875 C 334.20211,305.80092 332.29795,305.37503 330.1875,305.375 z M 362.78125,305.375 C 358.56456,305.37503 355.0369,306.80156 352.46875,309.59375 C 349.90918,312.37817 348.65625,316.15976 348.65625,320.6875 C 348.65625,325.09535 349.99332,328.77458 352.6875,331.46875 C 355.39744,334.16143 359.09403,335.5 363.53125,335.5 C 365.2833,335.5 367.05862,335.33315 368.78125,334.96875 C 370.48839,334.60762 372.12976,334.09362 373.75,333.40625 C 374.22519,333.20315 374.53284,332.73553 374.53125,332.21875 L 374.53125,328.125 C 374.52436,327.68004 374.2881,327.2702 373.9065,327.04124 C 373.52491,326.81228 373.05211,326.79669 372.65625,327 C 371.2038,327.77068 369.73484,328.34081 368.28125,328.71875 C 366.84826,329.09509 365.3716,329.28125 363.8125,329.28125 C 361.18284,329.28125 359.33025,328.59111 358,327.3125 C 356.93634,326.26971 356.3254,324.70497 356,322.75 L 374.25,322.75 C 374.95628,322.74679 375.52804,322.17503 375.53125,321.46875 L 375.53125,319.34375 C 375.53122,315.21101 374.40308,311.75558 372.09375,309.21875 C 369.80203,306.66468 366.59341,305.37503 362.78125,305.375 z M 331.25,311.5625 C 333.26716,311.56252 334.56771,312.20672 335.625,313.625 C 336.69222,315.03944 337.31248,317.17591 337.3125,320.125 C 337.31248,323.05762 336.69447,325.17636 335.625,326.59375 C 334.56771,328.01205 333.26716,328.65625 331.25,328.65625 C 329.25054,328.65625 327.94957,328.01789 326.875,326.59375 C 325.81413,325.17065 325.18749,323.05331 325.1875,320.125 C 325.18749,317.1802 325.81635,315.04514 326.875,313.625 C 327.94956,312.20088 329.25053,311.56252 331.25,311.5625 z M 80,311.59375 C 81.834783,311.59377 83.106834,312.16074 84.15625,313.3125 C 84.963728,314.18811 85.377976,315.39568 85.59375,316.8125 L 73.34375,316.8125 C 73.683009,315.36914 74.197138,314.16039 75.09375,313.3125 C 76.295125,312.18865 77.844443,311.59377 80,311.59375 z M 213.3125,311.59375 C 215.14728,311.59377 216.41933,312.16074 217.46875,313.3125 C 218.27623,314.18811 218.69048,315.39568 218.90625,316.8125 L 206.65625,316.8125 C 206.99551,315.36914 207.50964,314.16039 208.40625,313.3125 C 209.60762,312.18865 211.15695,311.59377 213.3125,311.59375 z M 283.21875,311.59375 C 285.17125,311.59377 286.5201,312.26685 287.65625,313.8125 C 287.65612,313.82292 287.65612,313.83333 287.65625,313.84375 C 288.78851,315.37102 289.40623,317.50922 289.40625,320.4375 C 289.40623,323.38234 288.78639,325.53811 287.65625,327.0625 C 286.52283,328.59128 285.17708,329.28125 283.21875,329.28125 C 281.21883,329.28125 279.88061,328.60563 278.75,327.09375 C 277.63097,325.56661 276.99999,323.39458 277,320.4375 C 276.99999,317.48471 277.64999,315.32523 278.78125,313.8125 C 279.91748,312.27992 281.24247,311.59377 283.21875,311.59375 z M 362.84375,311.59375 C 364.67853,311.59377 365.95058,312.16074 367,313.3125 C 367.80748,314.18811 368.22173,315.39568 368.4375,316.8125 L 356.1875,316.8125 C 356.52676,315.36914 357.04089,314.16039 357.9375,313.3125 C 359.13887,312.18865 360.6882,311.59377 362.84375,311.59375 z M 400.65625,326.3125 C 399.99918,326.37965 399.49959,326.93326 399.5,327.59375 L 399.5,333.5625 C 399.50321,334.26878 400.07497,334.84054 400.78125,334.84375 L 405.71875,334.84375 C 406.42503,334.84054 406.99679,334.26878 407,333.5625 L 407,327.59375 C 406.99679,326.88747 406.42503,326.31571 405.71875,326.3125 L 400.78125,326.3125 C 400.73961,326.31048 400.69789,326.31048 400.65625,326.3125 z"
       transform="translate(0,3.244713)"
       id="path7182"
       style="font-size:48px;font-style:normal;font-variant:normal;font-weight:normal;font-stretch:normal;text-align:center;text-anchor:middle;fill:#000000;fill-opacity:1;stroke:none;stroke-width:1px;stroke-linecap:butt;stroke-linejoin:miter;stroke-opacity:1;font-family:Sans;-inkscape-font-specification:Sans" />
  </g>
</svg>
